<svg xmlns:dc="http://purl.org/dc/elements/1.1/" xmlns:cc="http://web.resource.org/cc/" xmlns:rdf="http://www.w3.org/1999/02/22-rdf-syntax-ns#" xmlns:svg="http://www.w3.org/2000/svg" xmlns="http://www.w3.org/2000/svg" xmlns:sodipodi="http://sodipodi.sourceforge.net/DTD/sodipodi-0.dtd" xmlns:inkscape="http://www.inkscape.org/namespaces/inkscape" id="svg2" sodipodi:version="0.32" inkscape:version="0.45.1" width="566" height="280" version="1.0" sodipodi:docbase="C:\Documents and Settings\Robin\My Documents\My Pictures\Wiki Upload" sodipodi:docname="GO_Transit_logo.svg" inkscape:output_extension="org.inkscape.output.svg.inkscape">
  <metadata id="metadata7">
    <rdf:RDF>
      <cc:Work rdf:about="">
        <dc:format>image/svg+xml</dc:format>
        <dc:type rdf:resource="http://purl.org/dc/dcmitype/StillImage"/>
      </cc:Work>
    </rdf:RDF>
  </metadata>
  <defs id="defs5"/>
  <sodipodi:namedview inkscape:window-height="984" inkscape:window-width="1680" inkscape:pageshadow="2" inkscape:pageopacity="0.0" guidetolerance="10.0" gridtolerance="10.0" objecttolerance="10.0" borderopacity="1.0" bordercolor="#666666" pagecolor="#ffffff" id="base" inkscape:zoom="1.2508834" inkscape:cx="283" inkscape:cy="140" inkscape:window-x="0" inkscape:window-y="26" inkscape:current-layer="svg2"/>
  <path style="fill:#fff;fill-opacity:1" d="M 144,212 L 144,147 L 211,147 L 278,147 L 278,212 L 278,277 L 211,277 L 144,277 L 144,212 z M 411.26509,276.03804 C 379.55352,272.39758 351.70962,258.86885 328.98023,236.05764 C 323.19435,230.25094 316.10362,222.04679 313.22305,217.82619 C 306.1585,207.47525 298.84365,192.52547 295.20419,181 C 292.3624,172.00059 289,155.37543 289,150.32378 L 289,148 L 425.5,148 L 562,148 L 562,152.09292 C 562,154.34402 561.07114,160.75652 559.93586,166.34292 C 548.72157,221.52538 506.5914,263.46522 451.67991,274.1098 C 440.16466,276.34203 421.62031,277.2268 411.26509,276.03804 z M 116.5,274.39308 C 89.493914,269.57435 65.753587,257.36748 45.558588,237.9162 C 24.862884,217.98267 11.991556,194.57359 5.8446103,165.68841 C 2.7772465,151.27452 2.7772465,127.72548 5.8446103,113.31159 C 11.854324,85.071281 23.437593,63.586862 43.499774,43.469539 C 60.116234,26.807407 76.384666,16.716997 98.071527,9.621692 C 106.17367,6.9709091 124.94239,3 129.36933,3 C 129.7162,3 130,64.425 130,139.5 L 130,276 L 127.25,275.91026 C 125.7375,275.86091 120.9,275.17817 116.5,274.39308 z M 145,67.856224 L 145,2.712448 L 153.23745,3.399425 C 175.75914,5.2776624 197.88369,13.209406 218.5,26.796318 C 227.80437,32.92824 247.44615,52.595671 253.85035,62.192824 C 267.11829,82.075795 274.55504,102.72591 277.45953,127.75 L 278.06889,133 L 211.53444,133 L 145,133 L 145,67.856224 z M 289.4818,125.35097 C 290.33351,116.26193 293.93256,100.88137 297.30256,91.928892 C 314.54874,46.114015 355.64288,12.370921 403.84069,4.4486219 C 418.96528,1.9625853 443.69423,2.8461612 457.69047,6.3726979 C 484.22078,13.057356 505.8834,25.665215 524.75426,45.40448 C 546.05059,67.680825 558.81189,95.541178 562.47225,127.75 L 563.06889,133 L 425.91696,133 L 288.76502,133 L 289.4818,125.35097 z " id="path2162"/>
</svg>